<mxfile host="app.diagrams.net" agent="Mozilla/5.0 (Windows NT 10.0; Win64; x64) AppleWebKit/537.36 (KHTML, like Gecko) Chrome/133.0.0.0 Safari/537.36" version="26.0.16">
  <diagram id="mAvse2LpdNEpAd8Tfcfa" name="Page-1">
    <mxGraphModel dx="989" dy="567" grid="1" gridSize="10" guides="1" tooltips="1" connect="1" arrows="1" fold="1" page="1" pageScale="1" pageWidth="1169" pageHeight="827" math="0" shadow="0">
      <root>
        <mxCell id="0" />
        <mxCell id="1" parent="0" />
        <mxCell id="tLHmlmdhEoFzy0Rs1xN5-30" value="PetAgenda" style="swimlane;html=1;childLayout=stackLayout;resizeParent=1;resizeParentMax=0;horizontal=1;startSize=20;horizontalStack=0;whiteSpace=wrap;fontSize=10;" parent="1" vertex="1">
          <mxGeometry x="50" y="100" width="2220" height="510" as="geometry" />
        </mxCell>
        <mxCell id="tLHmlmdhEoFzy0Rs1xN5-31" value="&lt;span style=&quot;font-weight: 400; text-wrap-mode: wrap;&quot;&gt;Documentação geral&lt;/span&gt;" style="swimlane;html=1;startSize=40;horizontal=0;fontSize=10;" parent="tLHmlmdhEoFzy0Rs1xN5-30" vertex="1">
          <mxGeometry y="20" width="2220" height="100" as="geometry" />
        </mxCell>
        <mxCell id="tLHmlmdhEoFzy0Rs1xN5-35" value="DEF.: tema" style="rounded=1;whiteSpace=wrap;html=1;fontSize=10;fontStyle=0;fillColor=#dae8fc;strokeColor=#00D982;gradientColor=#009900;textShadow=0;" parent="tLHmlmdhEoFzy0Rs1xN5-31" vertex="1">
          <mxGeometry x="57" y="20" width="50" height="60" as="geometry" />
        </mxCell>
        <mxCell id="tLHmlmdhEoFzy0Rs1xN5-36" value="DEF.:&amp;nbsp;&lt;div&gt;funcionamento geral&lt;/div&gt;" style="rounded=1;whiteSpace=wrap;html=1;fontSize=10;fontStyle=0;fillColor=#dae8fc;strokeColor=#00D982;gradientColor=#009900;textShadow=0;" parent="tLHmlmdhEoFzy0Rs1xN5-31" vertex="1">
          <mxGeometry x="117" y="20" width="80" height="60" as="geometry" />
        </mxCell>
        <mxCell id="tLHmlmdhEoFzy0Rs1xN5-38" value="DEF.:&lt;div&gt;modelo de negócio&lt;/div&gt;" style="rounded=1;whiteSpace=wrap;html=1;fontSize=10;fontStyle=0;fillColor=#dae8fc;strokeColor=#00D982;gradientColor=#009900;textShadow=0;" parent="tLHmlmdhEoFzy0Rs1xN5-31" vertex="1">
          <mxGeometry x="207" y="20" width="80" height="60" as="geometry" />
        </mxCell>
        <mxCell id="tLHmlmdhEoFzy0Rs1xN5-40" value="&lt;div&gt;AVAL.:&lt;/div&gt;&lt;div&gt;&lt;span style=&quot;background-color: transparent; color: light-dark(rgb(0, 0, 0), rgb(255, 255, 255));&quot;&gt;requisitos existentes&lt;/span&gt;&lt;/div&gt;" style="rounded=1;whiteSpace=wrap;html=1;fontSize=10;fontStyle=0;fillColor=#dae8fc;strokeColor=#00D982;gradientColor=#009900;textShadow=0;" parent="tLHmlmdhEoFzy0Rs1xN5-31" vertex="1">
          <mxGeometry x="297" y="20" width="60" height="60" as="geometry" />
        </mxCell>
        <mxCell id="tLHmlmdhEoFzy0Rs1xN5-42" value="Levantamento dos novos requisitos" style="rounded=1;whiteSpace=wrap;html=1;fontSize=10;fontStyle=0;fillColor=#dae8fc;strokeColor=#00D982;gradientColor=#009900;textShadow=0;" parent="tLHmlmdhEoFzy0Rs1xN5-31" vertex="1">
          <mxGeometry x="367" y="20" width="130" height="60" as="geometry" />
        </mxCell>
        <mxCell id="KUVCCQ25tCZHHKT2AxMN-3" value="" style="rounded=1;whiteSpace=wrap;html=1;arcSize=60;fillColor=#dae8fc;gradientColor=#7ea6e0;strokeColor=#6c8ebf;" parent="tLHmlmdhEoFzy0Rs1xN5-31" vertex="1">
          <mxGeometry x="127.25" y="90" width="59.5" height="4" as="geometry" />
        </mxCell>
        <mxCell id="tLHmlmdhEoFzy0Rs1xN5-32" value="&lt;span style=&quot;font-weight: 400;&quot;&gt;BD&lt;/span&gt;" style="swimlane;html=1;startSize=40;horizontal=0;fontSize=10;" parent="tLHmlmdhEoFzy0Rs1xN5-30" vertex="1">
          <mxGeometry y="120" width="2220" height="120" as="geometry" />
        </mxCell>
        <mxCell id="tLHmlmdhEoFzy0Rs1xN5-45" value="Criação do diagrama ER" style="rounded=1;whiteSpace=wrap;html=1;fontSize=10;fillColor=#f5f5f5;strokeColor=#666666;gradientColor=#b3b3b3;textShadow=0;" parent="tLHmlmdhEoFzy0Rs1xN5-32" vertex="1">
          <mxGeometry x="497" y="30" width="90" height="60" as="geometry" />
        </mxCell>
        <mxCell id="tLHmlmdhEoFzy0Rs1xN5-47" value="Criação&amp;nbsp;do diag. lógico e físico" style="rounded=1;whiteSpace=wrap;html=1;fontSize=10;fillColor=#f5f5f5;strokeColor=#666666;gradientColor=#b3b3b3;textShadow=0;" parent="tLHmlmdhEoFzy0Rs1xN5-32" vertex="1">
          <mxGeometry x="597" y="30" width="60" height="60" as="geometry" />
        </mxCell>
        <mxCell id="tLHmlmdhEoFzy0Rs1xN5-49" value="Criação&amp;nbsp;do diag.&amp;nbsp; físico das views" style="rounded=1;whiteSpace=wrap;html=1;fontSize=10;fillColor=#f5f5f5;strokeColor=#666666;gradientColor=#b3b3b3;textShadow=0;" parent="tLHmlmdhEoFzy0Rs1xN5-32" vertex="1">
          <mxGeometry x="667" y="30" width="70" height="60" as="geometry" />
        </mxCell>
        <mxCell id="tLHmlmdhEoFzy0Rs1xN5-50" value="Criação do script de geração de schema" style="rounded=1;whiteSpace=wrap;html=1;fontSize=10;fillColor=#f5f5f5;strokeColor=#666666;gradientColor=#b3b3b3;textShadow=0;" parent="tLHmlmdhEoFzy0Rs1xN5-32" vertex="1">
          <mxGeometry x="747" y="30" width="60" height="60" as="geometry" />
        </mxCell>
        <mxCell id="tLHmlmdhEoFzy0Rs1xN5-51" value="Criação&amp;nbsp;do script de inserção de dados" style="rounded=1;whiteSpace=wrap;html=1;fontSize=10;fillColor=#f5f5f5;strokeColor=#666666;gradientColor=#b3b3b3;textShadow=0;" parent="tLHmlmdhEoFzy0Rs1xN5-32" vertex="1">
          <mxGeometry x="817" y="30" width="60" height="60" as="geometry" />
        </mxCell>
        <mxCell id="tLHmlmdhEoFzy0Rs1xN5-53" value="Criação&amp;nbsp;dos scripts de definição de procedures, functions e events" style="rounded=1;whiteSpace=wrap;html=1;fontSize=10;fillColor=#f5f5f5;strokeColor=#666666;gradientColor=#b3b3b3;textShadow=0;" parent="tLHmlmdhEoFzy0Rs1xN5-32" vertex="1">
          <mxGeometry x="887" y="30" width="150" height="60" as="geometry" />
        </mxCell>
        <mxCell id="tLHmlmdhEoFzy0Rs1xN5-55" value="Configuração do script de permissionamento de acesso aos schemas" style="rounded=1;whiteSpace=wrap;html=1;fontSize=10;fillColor=#f5f5f5;strokeColor=#666666;gradientColor=#b3b3b3;textShadow=0;" parent="tLHmlmdhEoFzy0Rs1xN5-32" vertex="1">
          <mxGeometry x="1047" y="30" width="130" height="60" as="geometry" />
        </mxCell>
        <mxCell id="tLHmlmdhEoFzy0Rs1xN5-33" value="&lt;span style=&quot;font-weight: 400;&quot;&gt;Front-end&lt;/span&gt;" style="swimlane;html=1;startSize=40;horizontal=0;fontSize=10;" parent="tLHmlmdhEoFzy0Rs1xN5-30" vertex="1">
          <mxGeometry y="240" width="2220" height="170" as="geometry" />
        </mxCell>
        <mxCell id="tLHmlmdhEoFzy0Rs1xN5-59" value="Protótipo do fluxo de uso (casos de uso)" style="rounded=1;whiteSpace=wrap;html=1;fontSize=10;fillColor=#e6d0de;strokeColor=#996185;gradientColor=#d5739d;textShadow=0;" parent="tLHmlmdhEoFzy0Rs1xN5-33" vertex="1">
          <mxGeometry x="597" y="20" width="90" height="60" as="geometry" />
        </mxCell>
        <mxCell id="tLHmlmdhEoFzy0Rs1xN5-61" value="Prototipação das interfaces (sketches e protótipos funcionais)" style="rounded=1;whiteSpace=wrap;html=1;fontSize=10;fillColor=#e6d0de;strokeColor=#996185;gradientColor=#d5739d;textShadow=0;" parent="tLHmlmdhEoFzy0Rs1xN5-33" vertex="1">
          <mxGeometry x="697" y="20" width="160" height="60" as="geometry" />
        </mxCell>
        <mxCell id="tLHmlmdhEoFzy0Rs1xN5-62" value="Desenvolvimento das interfaces visuais" style="rounded=1;whiteSpace=wrap;html=1;fontSize=10;fillColor=#e6d0de;strokeColor=#996185;gradientColor=#d5739d;textShadow=0;" parent="tLHmlmdhEoFzy0Rs1xN5-33" vertex="1">
          <mxGeometry x="1077" y="20" width="1020" height="60" as="geometry" />
        </mxCell>
        <mxCell id="tLHmlmdhEoFzy0Rs1xN5-76" value="Diagrama de atividade da lógica de comunicação entre front-end e API REST" style="rounded=1;whiteSpace=wrap;html=1;fontSize=10;fillColor=#dae8fc;strokeColor=#6c8ebf;gradientColor=#7ea6e0;textShadow=0;" parent="tLHmlmdhEoFzy0Rs1xN5-33" vertex="1">
          <mxGeometry x="1517" y="90" width="140" height="60" as="geometry" />
        </mxCell>
        <mxCell id="tLHmlmdhEoFzy0Rs1xN5-79" value="Criação&amp;nbsp;e integração da lógica front-end ao HTML" style="rounded=1;whiteSpace=wrap;html=1;fontSize=10;fillColor=#dae8fc;strokeColor=#6c8ebf;gradientColor=#7ea6e0;textShadow=0;" parent="tLHmlmdhEoFzy0Rs1xN5-33" vertex="1">
          <mxGeometry x="1667" y="90" width="540" height="60" as="geometry" />
        </mxCell>
        <mxCell id="KUVCCQ25tCZHHKT2AxMN-2" value="Identificação dos componentes visuais (React)" style="rounded=1;whiteSpace=wrap;html=1;fontSize=10;fillColor=#e6d0de;strokeColor=#996185;gradientColor=#d5739d;textShadow=0;" parent="tLHmlmdhEoFzy0Rs1xN5-33" vertex="1">
          <mxGeometry x="867" y="20" width="200" height="60" as="geometry" />
        </mxCell>
        <mxCell id="tLHmlmdhEoFzy0Rs1xN5-57" value="&lt;span style=&quot;font-weight: 400;&quot;&gt;Back-end&lt;/span&gt;" style="swimlane;html=1;startSize=40;horizontal=0;fontSize=10;" parent="tLHmlmdhEoFzy0Rs1xN5-30" vertex="1">
          <mxGeometry y="410" width="2220" height="100" as="geometry" />
        </mxCell>
        <mxCell id="tLHmlmdhEoFzy0Rs1xN5-83" value="Definição das rotas da API REST" style="rounded=1;whiteSpace=wrap;html=1;fontSize=10;fillColor=#ffcd28;strokeColor=#d79b00;gradientColor=#ffa500;textShadow=0;" parent="tLHmlmdhEoFzy0Rs1xN5-57" vertex="1">
          <mxGeometry x="807" y="20" width="70" height="60" as="geometry" />
        </mxCell>
        <mxCell id="tLHmlmdhEoFzy0Rs1xN5-85" value="Criação&amp;nbsp;dos diagramas de atividade do servidor de API REST" style="rounded=1;whiteSpace=wrap;html=1;fontSize=10;fillColor=#ffcd28;strokeColor=#d79b00;gradientColor=#ffa500;textShadow=0;" parent="tLHmlmdhEoFzy0Rs1xN5-57" vertex="1">
          <mxGeometry x="887" y="20" width="100" height="60" as="geometry" />
        </mxCell>
        <mxCell id="tLHmlmdhEoFzy0Rs1xN5-86" value="Desenvolvimento do código fonte da API REST para interpretação das rotas" style="rounded=1;whiteSpace=wrap;html=1;fontSize=10;fillColor=#ffcd28;strokeColor=#d79b00;gradientColor=#ffa500;textShadow=0;" parent="tLHmlmdhEoFzy0Rs1xN5-57" vertex="1">
          <mxGeometry x="997" y="20" width="340" height="60" as="geometry" />
        </mxCell>
        <mxCell id="tLHmlmdhEoFzy0Rs1xN5-87" value="Desenvolvimento do código fonte da API REST para comunicação com o SGBD e retorno de resposta ao cliente" style="rounded=1;whiteSpace=wrap;html=1;fontSize=10;fillColor=#ffcd28;strokeColor=#d79b00;gradientColor=#ffa500;textShadow=0;" parent="tLHmlmdhEoFzy0Rs1xN5-57" vertex="1">
          <mxGeometry x="1347" y="20" width="640" height="60" as="geometry" />
        </mxCell>
        <mxCell id="tLHmlmdhEoFzy0Rs1xN5-93" value="Desenvolvimento do código de autenticação entre front-end e API e entre SGBD e API" style="rounded=1;whiteSpace=wrap;html=1;fontSize=10;fillColor=#ffcd28;gradientColor=#ffa500;strokeColor=#d79b00;" parent="tLHmlmdhEoFzy0Rs1xN5-57" vertex="1">
          <mxGeometry x="1997" y="20" width="180" height="60" as="geometry" />
        </mxCell>
      </root>
    </mxGraphModel>
  </diagram>
</mxfile>
